P3
5 5
255
5 6 7  7 8 9  23 45 200  45 67 59  23 45 56
23 34 45  0 0 0  0 0 0  0 0 0  45 65 56
124 34 35  0 0 0  0 50 0  0 0 0  235 32 54
213 23 2  0 0 0  0 0 0  0 0 0  32 35 235
7 8 9  23 45 200  45 67 59  23 45 56  5 6 7 